<?xml version="1.0" encoding="utf-8"?>
<!-- Uploaded to: SVG Repo, www.svgrepo.com, Generator: SVG Repo Mixer Tools -->
<svg width="800px" height="800px" viewBox="0 -25.32 334.458 334.458" xmlns="http://www.w3.org/2000/svg"><defs><style>.a{fill:#ffffff;}.b{fill:#bbdef2;}.c{fill:#ffe9aa;}.d{fill:#211715;}.e{fill:#7abee6;}</style></defs><path class="a" d="M278.31,105.7c-1.833,3.023-7.63,5.016-12.342,8.385-5.318,3.8-9.211,9.409-6.368,17.948a177.568,177.568,0,0,0,28.549,2.073,176.917,176.917,0,0,0,28.557-2.079c2.833-8.536-1.06-14.141-6.376-17.942-5.489-3.924-12.45-5.982-12.9-9.975L297.4,92.035a11.762,11.762,0,0,0-2.1-7.117,10.078,10.078,0,0,0-14.3,0,11.768,11.768,0,0,0-2.1,7.117l-.027,12.071A3.887,3.887,0,0,1,278.31,105.7Z"/><path class="a" d="M323.138,261.959a28.293,28.293,0,0,1-4.17,2.236c-8.565,2.462-18.567,3.083-30.819,3.083-11.77,0-22.388-.621-29.813-2.9-6.7-2.844-11.035-7.071-12.751-13.915-1.153-4.6-.715-11.332-.323-20.007.539-11.888,2.546-51.4,2.92-60.42a28.1,28.1,0,0,1,2.106-9.31,16.7,16.7,0,0,1,3.653-5.546l.023-.02a18.193,18.193,0,0,0,4.906,1.527,175.914,175.914,0,0,0,29.279,2.194,175.693,175.693,0,0,0,29.507-2.231,15.456,15.456,0,0,0,5.291-1.47,16.7,16.7,0,0,1,3.653,5.546,28.1,28.1,0,0,1,2.106,9.31c.374,9.018,2.381,48.532,2.92,60.42.392,8.675.83,15.41-.323,20.007A18.533,18.533,0,0,1,323.138,261.959Z"/><path class="a" d="M2.4,98.493c0-11.422,7.1-22.869,16.278-28.886,13.121-8.6,31.97-17,70.381-17s57.259,8.4,70.381,17c9.178,6.017,16.278,17.464,16.278,28.886s-7.1,22.87-16.278,28.887c-13.122,8.6-31.97,17-70.381,17s-57.26-8.4-70.381-17C9.5,121.363,2.4,109.916,2.4,98.493Z"/><path class="b" d="M175.719,98.494c0,11.422-7.1,22.869-16.278,28.886-13.122,8.6-31.971,17-70.382,17s-57.26-8.394-70.381-17C9.249,121.2,2.014,109.287,2.416,97.558c-.055-15.382.045,84.189,0,130.167v7.8c0,11.423,7.1,22.869,16.278,28.886,13.121,8.6,31.97,17,70.381,17s57.26-8.394,70.382-17c9.088-5.958,16.139-17.24,16.271-28.549-.053-31.847.006-107.967.006-132.294"/><path class="c" d="M22.883,114.278a32.583,32.583,0,0,0,6.991,5.293c11.238,6.245,28.173,11.769,59.231,11.769,32.9,0,49.039-6.094,60.276-12.338a29.19,29.19,0,0,0,3.469-2.269c2.915-11.9-8.759-21.03-18.9-23.149-8.332-1.741-19.911-2.28-28.408-2.781-13.234-.78-22.535-3.782-36.206-5.7a46.494,46.494,0,0,0-15.393.394c-10.381,2.047-26.619,17.727-34.5,24.787A32.771,32.771,0,0,0,22.883,114.278Z"/><path class="d" d="M173.335,103.572q0,18.412-.013,36.825-.011,24.932-.015,49.862,0,21.5.018,43.008a34.62,34.62,0,0,1-1.779,12.025,34.976,34.976,0,0,1-7.3,11.9c-4.356,4.7-10.12,7.979-15.821,10.8a91.967,91.967,0,0,1-18.061,6.576,143.075,143.075,0,0,1-25.928,3.95,224.574,224.574,0,0,1-33.207-.184,136.578,136.578,0,0,1-25.34-4.27,98.673,98.673,0,0,1-9.714-3.212,82.208,82.208,0,0,1-7.784-3.531c-6.033-3.114-11.8-6.7-16.139-12.025a34.191,34.191,0,0,1-6.4-12.387c-1.087-3.941-1.034-7.849-1.034-11.893q0-11.625.01-23.251.006-26.2-.008-52.4Q4.81,133.008,4.8,110.649q0-3.538,0-7.077c0-3.089-4.8-3.094-4.8,0q0,20.1.014,40.209.012,26.778.014,53.554,0,12.013-.006,24.026,0,6.356,0,12.711a36.813,36.813,0,0,0,1.905,12.345,41.262,41.262,0,0,0,17.427,21.266,93.215,93.215,0,0,0,15.674,7.845c16.78,6.532,35.22,8.216,53.085,8.283,18.114.067,36.832-1.459,53.927-7.865a93.1,93.1,0,0,0,16.07-7.829,44.834,44.834,0,0,0,9.274-7.248,41.075,41.075,0,0,0,8.162-12.655,35.431,35.431,0,0,0,2.586-13.625q-.007-4.468-.01-8.938-.009-10.986-.01-21.973,0-25.322.01-50.642.009-21.294.017-42.588,0-3.438,0-6.876c0-3.089-4.8-3.094-4.8,0Z"/><path class="d" d="M161.627,74.281a35.5,35.5,0,0,1,10.622,16.708,28.417,28.417,0,0,1-1.291,18.762,35.055,35.055,0,0,1-11.5,14.713,75.973,75.973,0,0,1-9.613,5.769,97.043,97.043,0,0,1-25.528,8.679c-13.431,2.713-27.27,3.312-40.94,3-12.418-.283-24.9-1.485-36.921-4.728a88.179,88.179,0,0,1-22.75-9.494,41.32,41.32,0,0,1-11.585-9.583A32.69,32.69,0,0,1,4.895,100.8C3.886,88.48,11.362,77.033,21.5,70.647a91.082,91.082,0,0,1,9.579-5.278,87.288,87.288,0,0,1,11.869-4.557C54.221,57.347,66,55.832,77.759,55.27c3.764-.179,7.532-.256,11.3-.26,3.089,0,3.094-4.8,0-4.8-13.709.013-27.559.99-40.921,4.207a97.3,97.3,0,0,0-25.479,9.931,50.384,50.384,0,0,0-11.895,8.8,39.5,39.5,0,0,0-9.936,18.2c-3.124,13.877,3.593,28.274,14.663,36.7,6.655,5.068,14.632,8.786,22.487,11.542,11.2,3.931,23.073,5.783,34.883,6.634a210.7,210.7,0,0,0,45.215-1.387,111.457,111.457,0,0,0,29.982-8.424c9.052-4.088,17.748-9.424,23.463-17.75a36.533,36.533,0,0,0,6.587-19.4,35.815,35.815,0,0,0-6.251-20.442,41.263,41.263,0,0,0-6.836-7.935c-2.295-2.055-5.7,1.328-3.394,3.394Z"/><path class="d" d="M160.922,98.032c-.07,6.642-4.211,12.7-9.321,16.657a52.94,52.94,0,0,1-11.354,6.136c-1.615.683-3.958,1.56-5.891,2.2q-3.489,1.158-7.062,2.034A124.183,124.183,0,0,1,109.776,128a214.4,214.4,0,0,1-24.029.921A185.2,185.2,0,0,1,63.4,127.406a113.955,113.955,0,0,1-16.5-3.417,76,76,0,0,1-12.083-4.558c-5.222-2.519-9.994-5.749-13.421-10.528a21.2,21.2,0,0,1-3.964-8.9,16.36,16.36,0,0,1,1.723-9.586,24.768,24.768,0,0,1,3-4.685,2.471,2.471,0,0,0,0-3.394,2.419,2.419,0,0,0-3.394,0c-5,6.137-7.869,14.112-5.2,21.895,2.447,7.128,8.015,13.24,14.451,17.04,8.648,5.106,18.585,8.078,28.408,9.86,15.672,2.844,31.932,3.2,47.794,2.13,11.987-.809,24.1-2.653,35.348-7.015a79.061,79.061,0,0,0,11.712-5.56c6.407-3.8,11.835-10.059,13.746-17.351a21.957,21.957,0,0,0,.7-5.3c.033-3.089-4.767-3.092-4.8,0Z"/><path class="d" d="M21.139,111.981c6.282-5.633,12.419-11.464,19.2-16.5a54.829,54.829,0,0,1,10.671-6.546c4.1-1.778,9.488-2.062,14.124-1.829,5.819.292,11.622,1.6,17.326,2.714,5.418,1.06,10.833,2.108,16.316,2.773,10.755,1.305,21.653,1.017,32.353,2.891a28.149,28.149,0,0,1,13.28,5.669c3.635,2.983,6.434,7.055,6.491,11.89.036,3.087,4.836,3.095,4.8,0-.12-10.245-8.9-17.8-17.96-20.9-4.954-1.7-10.437-2.12-15.618-2.607-5.518-.519-11.054-.8-16.585-1.13-11.866-.715-23.348-3.874-35.082-5.545-5.982-.852-12.443-1.033-18.323.6a38.957,38.957,0,0,0-11.119,5.665c-8.384,5.7-15.747,12.71-23.272,19.459-2.3,2.067,1.1,5.453,3.394,3.394Z"/><path class="a" d="M54.752,188.32C59.9,174.562,75.363,168.28,89.5,168.7c8.241.244,17.039,2.285,23.2,6.564,6.4,4.442,10.367,9.007,11.917,16.634a33.24,33.24,0,0,1,.2,12.91s-.6,2.837-1.106,5.233a5.956,5.956,0,0,1,2.758-.633,4.162,4.162,0,0,1,3.327,1.558,4.66,4.66,0,0,1,.684,2.215,15.308,15.308,0,0,1-1.358,9.157,11.826,11.826,0,0,1-3.084,3.863,13.719,13.719,0,0,1-4.624,2.206l-.325.073c-2.882,10.1-11.837,17.488-21.553,20.561-5.927,1.875-15.385,2.261-21.837.321-9.581-2.879-18.231-10.791-20.548-20.879l-.438-.076a13.719,13.719,0,0,1-4.624-2.206,11.826,11.826,0,0,1-3.084-3.863,15.308,15.308,0,0,1-1.358-9.157,4.672,4.672,0,0,1,.685-2.215,4.159,4.159,0,0,1,3.326-1.558,5.944,5.944,0,0,1,3.924,1.4c-.387-2.247-.58-3.37-.966-5.617a25.048,25.048,0,0,1-.6-14.494C54.237,189.876,54.473,189.066,54.752,188.32Z"/><path class="d" d="M83.206,234.425c1.755,1.746,4.464,2.328,6.835,2.32s5.079-.6,6.836-2.357a2.455,2.455,0,0,0,0-3.438,2.494,2.494,0,0,0-3.443.06c-.094.093-.434.366-.028.049s-.019,0-.137.075-.269.159-.408.23c-.092.048-.194.086-.284.137.1-.058.595-.234.212-.1a9.461,9.461,0,0,1-1.359.383c-.076.014-.151.028-.227.04q-.279.047.253-.032c0,.01-.392.043-.417.045-.332.03-.665.044-1,.045-.3,0-.61-.009-.914-.032-.163-.012-.341-.05-.5-.05.218,0,.478.073.1,0a8.337,8.337,0,0,1-1.378-.368c-.194-.072-.509-.272.157.076-.077-.041-.16-.073-.238-.112-.155-.077-.306-.16-.453-.251-.112-.07-.216-.154-.327-.224.713.449.358.292.164.1a2.418,2.418,0,1,0-3.443,3.4Z"/><path class="d" d="M72.791,214.069c-.551,1.755-.206,5.878,3.157,6.343,4.446.127,4.7-4.839,3.2-7.2C77.931,211.273,74.33,210.359,72.791,214.069Z"/><path class="d" d="M106.328,214.022c.551,1.753.206,5.877-3.157,6.352-4.445.14-4.7-4.827-3.2-7.195C101.188,211.24,104.789,210.316,106.328,214.022Z"/><path class="d" d="M123.774,212.785a3.433,3.433,0,0,1,2.4-.946,2.241,2.241,0,0,1,1.625.684c-.248-.292.078.189.061.139a5.307,5.307,0,0,1,.212.852c.029.185.074.844.1,1.213a17.313,17.313,0,0,1-.066,3.307,10.723,10.723,0,0,1-2.549,5.478,9.162,9.162,0,0,1-4.777,2.609,2.686,2.686,0,0,0-1.7,3.14,2.27,2.27,0,0,0,2.986,1.428c6.366-1.57,10.472-7.559,10.94-13.842.224-3.006.138-6.837-2.326-8.612a7.912,7.912,0,0,0-9.353.587,2.644,2.644,0,0,0-.87,3.405,2.324,2.324,0,0,0,3.32.558Z"/><path class="d" d="M56.811,208.822a7.908,7.908,0,0,0-9.353-.587c-2.464,1.775-2.55,5.606-2.326,8.612.468,6.284,4.574,12.272,10.94,13.842a2.284,2.284,0,0,0,2.986-1.428,2.686,2.686,0,0,0-1.7-3.14,9.218,9.218,0,0,1-4.678-2.5,9.092,9.092,0,0,1-1.582-2.276,10.164,10.164,0,0,1-1.065-3.31,16.865,16.865,0,0,1-.075-3.148c.021-.391.075-1.176.1-1.372a3.594,3.594,0,0,1,.317-1.038,1.324,1.324,0,0,1,.67-.446,2.687,2.687,0,0,1,.943-.194,3.54,3.54,0,0,1,2.366.949,2.323,2.323,0,0,0,3.32-.558,2.627,2.627,0,0,0-.871-3.405Z"/><path class="d" d="M54.5,226.274c.313,6.621,4.348,13.086,9.241,17.624a35.458,35.458,0,0,0,10.45,6.749,19.808,19.808,0,0,0,2.851,1.036c1.377.338.564.16.36.1.233.071.474.126.71.184q.827.2,1.662.36a43.864,43.864,0,0,0,6.4.739,40.707,40.707,0,0,0,14.02-1.7c2.616-.842,2.136-4.838-.647-4.755H99.54q.324,2.377.647,4.754A37.076,37.076,0,0,0,116.91,240.7c3.355-3.805,6.152-8.6,6.871-13.567a2.268,2.268,0,0,0-1.694-2.826,2.7,2.7,0,0,0-2.986,1.967,21.648,21.648,0,0,1-5.627,11.245,32.1,32.1,0,0,1-14.581,9.194c-2.629.815-2.127,4.838.647,4.756h.012q-.324-2.378-.647-4.755a35.626,35.626,0,0,1-10.674,1.524,43.356,43.356,0,0,1-5.681-.337c-.81-.1-1.614-.246-2.413-.419q-.635-.138-1.263-.3c-.275-.072-.58-.11-.848-.2-.982-.318.4.122-.272-.133a33.129,33.129,0,0,1-9.551-5.263,27.854,27.854,0,0,1-6.054-6.913,21.117,21.117,0,0,1-2-4.143,13.819,13.819,0,0,1-.789-3.813c-.148-3.127-5-3.593-4.854-.446Z"/><path class="d" d="M56.96,204.765c-2.806-7.16-.989-15.228,2.863-21.036A26.493,26.493,0,0,1,74.392,173.4c13.555-4.067,32.049-2.538,42.42,8.555,5.438,5.818,6.81,14.264,5.67,22.439-.184,1.316.317,2.583,1.694,2.824a2.735,2.735,0,0,0,2.983-2.01,41.085,41.085,0,0,0,.019-13.047,25.944,25.944,0,0,0-4.6-11.2c-5.19-6.89-13.3-11.254-21.872-13.283-14.786-3.5-33.293-.331-43.592,11.229-5.727,6.429-8.068,18.579-4.83,26.69a2.812,2.812,0,0,0,2.984,2,2.219,2.219,0,0,0,1.7-2.83Z"/><path class="d" d="M84.516,192.892a12.5,12.5,0,0,1-.479,1.5l.245-.577a7.878,7.878,0,0,1-1.052,1.774l.381-.486a8.359,8.359,0,0,1-1.482,1.436l.493-.37a8.292,8.292,0,0,1-1.8,1.01l.582-.232a7.807,7.807,0,0,1-2,.5l.647-.07c-.138.014-.277.024-.416.032a2.538,2.538,0,0,0-1.721.661,2.384,2.384,0,0,0-.712,1.695,2.549,2.549,0,0,0,2.433,2.5,10.425,10.425,0,0,0,6.267-2.5,10.683,10.683,0,0,0,3.315-5.558,2.439,2.439,0,0,0-4.7-1.322Z"/><path class="d" d="M94.334,194.389a7.363,7.363,0,0,1-.055,1l.087-.647a7.613,7.613,0,0,1-.53,1.921l.246-.584a8.167,8.167,0,0,1-.959,1.644l.38-.5a7.95,7.95,0,0,1-1.331,1.357l.493-.384a7.278,7.278,0,0,1-1.541.923l.582-.249c-.062.027-.124.052-.186.077a2.68,2.68,0,0,0-1.455,1.124,2.485,2.485,0,0,0-.245,1.874,2.446,2.446,0,0,0,1.119,1.448,2.347,2.347,0,0,0,1.876.23,10.613,10.613,0,0,0,2.878-1.716,10.074,10.074,0,0,0,1.9-2.179,9.779,9.779,0,0,0,1.613-5.445,2.392,2.392,0,0,0-2.434-2.369,2.533,2.533,0,0,0-2.435,2.475Z"/><path class="a" d="M169.7,20.252a88.091,88.091,0,0,1-11.292,2.8c-11.058.024-25.692,1.357-36.689,6.874-6.482,3-16.459,8.2-20.2,14.142-1.19,1.886-.751,4.393.314,6.352,10.013,14.348,23.7,21.14,31.5,21.444,8.71.339,16.134-4.058,27.487-11.124,1.671-1.175,3.12-2.057,4.1-3.822,3.342-6.026,4.969-13.833,8.913-18.636,12.559-12.386,33.815-19.355,52.01-28.558V7.04c-4.411-1.8-8.82-6.665-13.711-3.788C201.74,8.053,183.964,15.867,169.7,20.252Z"/><path class="d" d="M169.062,17.938c-4,1.223-8.245,2.665-12.448,2.728-4.035.06-8.069.293-12.079.749a91.191,91.191,0,0,0-13.049,2.355A69.2,69.2,0,0,0,119.8,28.181a92.629,92.629,0,0,0-9.933,5.33,36.687,36.687,0,0,0-8.85,7.224,9.45,9.45,0,0,0-2.595,5.509,9.868,9.868,0,0,0,1.972,6.28,63.111,63.111,0,0,0,8.714,9.807,49.556,49.556,0,0,0,17.73,10.706,26.582,26.582,0,0,0,17.806-.784,71.8,71.8,0,0,0,10.709-5.365c2.035-1.2,4.044-2.441,6.051-3.688a17.454,17.454,0,0,0,4.944-4.11,26.18,26.18,0,0,0,2.816-5.561c.828-1.965,1.581-3.959,2.373-5.939a42.22,42.22,0,0,1,2.537-5.415,15.305,15.305,0,0,1,3.293-3.92c5.975-5.32,13.134-9.223,20.272-12.743,7.775-3.833,15.77-7.195,23.609-10.891q2.92-1.377,5.8-2.827a2.381,2.381,0,0,0,1.189-2.072V7.04a2.346,2.346,0,0,0-1.189-2.072c-3.562-1.514-6.573-4.35-10.517-4.9-3.756-.519-7.27,1.882-10.579,3.372-7.6,3.419-15.264,6.685-23.046,9.66-4.567,1.745-9.175,3.391-13.847,4.834-2.942.908-1.687,5.543,1.276,4.628,8.026-2.479,15.874-5.523,23.63-8.742q5.6-2.321,11.134-4.774,2.492-1.1,4.971-2.228a31.581,31.581,0,0,1,4.25-1.924c1.658-.464,3.334.365,4.758,1.149a62.8,62.8,0,0,0,5.547,3.065L223.44,7.04V9.722l1.188-2.073c-14.557,7.344-30.342,12.7-43.87,21.951a48.792,48.792,0,0,0-8.626,6.983c-2.642,2.906-4.1,6.89-5.522,10.481-.718,1.818-1.4,3.653-2.192,5.44-.74,1.669-1.453,3.5-2.851,4.728a35.759,35.759,0,0,1-5.017,3.326c-1.853,1.138-3.715,2.262-5.607,3.334-5.576,3.159-11.668,6.044-18.213,5.535-.279-.022-.557-.05-.835-.086.465.06-.2-.039-.344-.064-.581-.1-1.157-.23-1.729-.375a31.166,31.166,0,0,1-3.757-1.229,43.216,43.216,0,0,1-8.015-4.363,52.918,52.918,0,0,1-8.234-6.965,59.223,59.223,0,0,1-4.091-4.665c-1.136-1.444-2.446-2.929-2.516-4.855-.052-1.434,1.04-2.572,1.962-3.558A27.634,27.634,0,0,1,108.98,39.9a70.265,70.265,0,0,1,9.719-5.852,75.306,75.306,0,0,1,9.939-4.41,73.3,73.3,0,0,1,11.836-2.863A104.752,104.752,0,0,1,152.293,25.6q2.7-.129,5.4-.146a27.249,27.249,0,0,0,6.044-1.057c2.219-.537,4.414-1.164,6.6-1.831C173.284,21.666,172.028,17.031,169.062,17.938Z"/><path class="c" d="M116.284,43.672c.8-5.693,3.544-12.794,7.068-16.212,3.973-3.854,7.57-5.584,11.452-6.164,2.713-.405,6.493.27,9.569,1.154,7.634,2.193,13.317,11.287,16.248,16.112-.539,1.439-.941,2.6-1.409,3.938a10.617,10.617,0,0,1-4.947,5.833q-4.017,2.177-8.228,3.968c-1.6.682-3.226,1.321-4.883,1.859-4.466,1.45-8.376,2.569-13.071,2.5a11.642,11.642,0,0,1-5.127-1.745,67.86,67.86,0,0,1-7-5.208l.107-3.492A23.832,23.832,0,0,1,116.284,43.672Z"/><path class="d" d="M161.694,35.726a51.8,51.8,0,0,0-8.04-10.316,23.368,23.368,0,0,0-12.517-6.171,20.087,20.087,0,0,0-13.9,2.2,24.091,24.091,0,0,0-9.59,10.052,36.406,36.406,0,0,0-3.987,14.717c-.119,3.089,4.681,3.084,4.8,0a30.674,30.674,0,0,1,2.631-10.806,20.051,20.051,0,0,1,7.066-8.864,15.166,15.166,0,0,1,10.88-2.806A19.118,19.118,0,0,1,149.717,28.3a44.946,44.946,0,0,1,7.832,9.844c1.637,2.612,5.792.2,4.145-2.422Z"/><path class="d" d="M109.751,43.792c-.294,2.44.855,4.346,2.595,5.935,1.761,1.608,3.612,3.113,5.518,4.546,3.694,2.775,7.28,5,12.058,4.752a47.076,47.076,0,0,0,13.887-3.258c2.433-.91,4.822-1.956,7.166-3.073a33.938,33.938,0,0,0,6.057-3.322c4-3.046,5.008-7.929,6.75-12.386a2.417,2.417,0,0,0-1.676-2.952,2.455,2.455,0,0,0-2.952,1.676q-.968,2.475-1.846,4.98a10.366,10.366,0,0,1-2.224,4.039A16.375,16.375,0,0,1,150.5,47.6c-1.909.962-3.849,1.872-5.822,2.7a56.187,56.187,0,0,1-11.886,3.621,16.067,16.067,0,0,1-5.247.282,11.662,11.662,0,0,1-4.5-2.1,62.964,62.964,0,0,1-5.265-3.976c-.912-.768-1.864-1.541-2.7-2.4a1.933,1.933,0,0,1-.527-1.929,2.414,2.414,0,0,0-2.4-2.4,2.457,2.457,0,0,0-2.4,2.4Z"/><path class="c" d="M260.179,264.894q-.951-.243-1.843-.516c-6.7-2.844-11.035-7.071-12.751-13.915-1.153-4.6-.715-11.332-.323-20.007.33-7.283,1.211-24.933,1.93-39.588,5.543.891,11.45,1.907,11.45,1.907a175.57,175.57,0,0,0,29.507,2.231,175.587,175.587,0,0,0,29.507-2.231l12.006-2.6c.725,14.787,1.628,32.884,1.964,40.282.392,8.675.83,15.41-.323,20.007-1.681,6.7-5.871,10.893-12.335,13.732-8.565,2.462-18.567,3.083-30.819,3.083C277.321,267.278,267.468,266.753,260.179,264.894Z"/><path class="e" d="M318.111,131.888c-.166-.009-.331-.013-.5-.01a175.742,175.742,0,0,1-29.465,2.224,174.429,174.429,0,0,1-29.368-2.22,7.642,7.642,0,0,0-5.615,2.966c-1.636,2.173-2.123,4.98-2.473,7.677a44.584,44.584,0,0,0-.535,7.077c-.035,1.56,1.636,4.2,2.637,4.873a15.609,15.609,0,0,0,6.075,2.212,175.914,175.914,0,0,0,29.279,2.194,175.693,175.693,0,0,0,29.507-2.231,13.945,13.945,0,0,0,6.437-2.175c1-.67,2.672-3.313,2.637-4.873a44.584,44.584,0,0,0-.535-7.077c-.35-2.7-.837-5.5-2.473-7.677A7.617,7.617,0,0,0,318.111,131.888Z"/><path class="d" d="M261.808,131.065c-1.079-3.546-1.075-7.139.926-10.354,1.908-3.067,5.031-5.1,8.1-6.86,3.248-1.864,7.381-3.534,9.473-6.823,1.217-1.913.969-4.131.973-6.3L281.3,93a11.785,11.785,0,0,1,1.069-5.814,6.111,6.111,0,0,1,4.372-2.716,7.966,7.966,0,0,1,5.54,1.017c1.594.959,2.2,2.61,2.54,4.371a38,38,0,0,1,.2,7.005l.008,3.862a22.953,22.953,0,0,0,.111,4.139c.688,3.627,4.47,5.7,7.405,7.344,3.681,2.069,7.677,4.046,10.321,7.464,2.613,3.379,2.847,7.406,1.633,11.392-.9,2.962,3.73,4.228,4.629,1.276a17.128,17.128,0,0,0-.937-13.236c-1.94-3.636-5.254-6.336-8.708-8.461-2-1.232-4.1-2.3-6.119-3.505-1.308-.785-2.9-1.774-3.466-2.968-.139-.3,0,.37-.059-.223-.011-.108,0-.243,0-.324-.056-.636,0-1.294,0-1.932l-.01-4.587a51.563,51.563,0,0,0-.267-7.949,11.385,11.385,0,0,0-2.978-6.4,11.841,11.841,0,0,0-6.336-3.022c-4.814-.756-10.346,1.2-12.422,5.869A17.956,17.956,0,0,0,276.5,93l-.018,8.45c0,.715.051,1.458,0,2.173-.007.088-.131.75-.007.437a3.8,3.8,0,0,1-1.308,1.58,31.777,31.777,0,0,1-5.175,3.18c-4.269,2.376-8.5,5.026-11.224,9.2-2.8,4.3-3.046,9.5-1.578,14.318.9,2.947,5.532,1.691,4.628-1.276Z"/><path class="d" d="M252.244,153.482c-4.531,4.114-6.225,11.16-6.482,17.034q-.191,4.352-.4,8.7-.653,13.591-1.332,27.182c-.382,7.756-.772,15.512-1.129,23.269-.486,10.592-2.374,23.169,5.947,31.41a25.124,25.124,0,0,0,6.6,4.6,29.437,29.437,0,0,0,8.02,2.36,126.178,126.178,0,0,0,19.616,1.592c6.939.124,13.913.08,20.834-.487,3.1-.253,6.2-.624,9.266-1.167a30.648,30.648,0,0,0,8.35-2.343,22.367,22.367,0,0,0,11.084-11.5c2.065-5.026,1.932-10.609,1.749-15.944-.286-8.368-.762-16.733-1.172-25.1q-.691-14.058-1.383-28.118-.267-5.487-.525-10.976c-.195-4.214-.387-8.351-1.788-12.389a19.608,19.608,0,0,0-4.851-8.137c-2.283-2.072-5.688,1.313-3.394,3.4,3.768,3.42,4.888,9.324,5.1,14.17q.192,4.392.41,8.785.63,13.13,1.286,26.257.565,11.451,1.113,22.9c.248,5.336.668,10.712.434,16.055-.195,4.438-1.359,8.9-4.583,12.272a20.734,20.734,0,0,1-5.9,4.175c-2.278,1.126-5.082,1.494-7.576,1.924a119.758,119.758,0,0,1-18.134,1.416c-6.832.123-13.693.075-20.509-.447a82.845,82.845,0,0,1-8.514-1.038,24.685,24.685,0,0,1-7.149-2.136,17.31,17.31,0,0,1-8.934-10.009c-1.529-4.775-1.1-10.111-.883-15.156.331-7.848.733-15.694,1.119-23.539q.661-13.482,1.326-26.964.261-5.38.516-10.762c.163-3.5.2-6.949,1.166-10.35.774-2.717,1.967-5.617,4.1-7.556,2.293-2.081-1.11-5.468-3.394-3.4Z"/><path class="d" d="M317.018,190.461a184.338,184.338,0,0,1-46.346,1.436c-3.816-.331-7.615-.8-11.392-1.436a2.472,2.472,0,0,0-2.953,1.676A2.419,2.419,0,0,0,258,195.089a189.021,189.021,0,0,0,48.027,1.572q6.158-.548,12.263-1.571a2.42,2.42,0,0,0,1.676-2.953,2.456,2.456,0,0,0-2.952-1.676Z"/><path class="d" d="M258,158.964a189.792,189.792,0,0,0,42.591,1.97,140.114,140.114,0,0,0,19.358-2.223,11.457,11.457,0,0,0,7.473-4.416c1.718-2.5,1.8-5.085,1.6-8-.428-6.234-1.4-14.015-8.235-16.324-2.928-.989-5.978-.02-8.939.357-3.318.423-6.65.731-9.988.949a191.508,191.508,0,0,1-42.091-1.638c-3.895-.612-7.793,1.972-9.526,5.372-1.673,3.282-2.027,7.192-2.338,10.813-.262,3.044-.243,5.852,1.558,8.471,2.047,2.974,5.405,4.021,8.8,4.713a2.46,2.46,0,0,0,2.952-1.676,2.424,2.424,0,0,0-1.676-2.953,20.91,20.91,0,0,1-3.744-.993,3.96,3.96,0,0,1-2.371-1.79,7.293,7.293,0,0,1-.668-1.231,2.049,2.049,0,0,1-.189-1.181c.012-1.119.041-2.244.137-3.36.345-4.028.973-12.314,6.852-11.384a191.422,191.422,0,0,0,38.838,1.83,167.615,167.615,0,0,0,17.75-1.742,5.974,5.974,0,0,1,3.366.072,5.161,5.161,0,0,1,2.6,2.129c1.474,2.388,1.684,5.46,1.986,8.187.206,1.859.6,4.284-.121,5.793a7,7,0,0,1-.878,1.426c.072-.087-.4.4-.362.369.1-.1.48-.281-.146.091a12.085,12.085,0,0,1-3.909,1.487,127.687,127.687,0,0,1-16.8,1.973,184.61,184.61,0,0,1-42.6-1.72,2.472,2.472,0,0,0-2.953,1.677A2.42,2.42,0,0,0,258,158.964Z"/></svg>