<?xml version="1.0" encoding="iso-8859-1"?>
<!-- Uploaded to: SVG Repo, www.svgrepo.com, Generator: SVG Repo Mixer Tools -->
<svg fill="#000000" height="800px" width="800px" version="1.1" id="Layer_1" xmlns="http://www.w3.org/2000/svg" xmlns:xlink="http://www.w3.org/1999/xlink" 
	 viewBox="0 0 243.48 243.48" xml:space="preserve">
<g>
	<g>
		<path d="M214.264,57.28l-0.432-1.936L203.04,57.78c-2.976,0.672-4.972,3.68-5.844,7.98c-0.768-0.856-1.616-1.648-2.62-2.28
			c-2.852-1.8-6.224-2.38-9.488-1.648l-0.244,0.056c0.676-1.996,0.896-4.188,0.492-6.432c-0.716-3.956-3.14-7.448-6.484-9.34
			l-7.988-4.52l2.176-4.872c1.704-3.812,1.54-8.328-0.444-12.08c-1.884-3.564-5.124-6-8.896-6.676L111.916,8.68
			c-3.74-0.672-7.456,0.48-10.204,3.164c-3,2.92-4.396,7.252-3.732,11.584l8.584,56.136L30.56,96.724
			c-3.268,0.74-6.064,2.716-7.86,5.564c-0.736,1.16-1.212,2.42-1.536,3.716c-2.852-3.724-6.28-5.744-9.524-5.008L0,103.624
			l29.228,129.428l0.432,1.936l11.64-2.628c3.248-0.732,5.48-4.008,6.46-8.572c2.36,2.856,5.892,4.612,9.688,4.612
			c0.916,0,1.844-0.1,2.772-0.312l154.528-34.892c3.268-0.74,6.06-2.716,7.86-5.564c0.62-0.984,1.04-2.04,1.368-3.124
			c0.008,0.012,0.012,0.024,0.02,0.032c2.328,3.096,4.928,4.74,7.44,4.74c0.42,0,0.84-0.048,1.256-0.14l10.788-2.436L214.264,57.28z
			 M176.892,49.568c2.328,1.32,4.024,3.784,4.536,6.596c0.464,2.584-0.116,5.084-1.604,6.86l-38.564,46.032l-25.296,5.712
			l-0.088-0.552l7.46-83.696c0.096-1.052,0.404-1.996,0.816-2.852l45.692,27.424l1.164-1.944l-45.576-27.356
			c0.452-0.456,0.956-0.856,1.532-1.16c1.928-1.012,4.248-0.92,6.356,0.268L176.892,49.568z M185.44,154.84
			c0.944,4.176,0.18,8.496-2.16,12.152c-2.34,3.664-5.956,6.208-10.192,7.168l-90.172,20.36c-8.74,1.968-17.488-3.464-19.448-12.136
			l-10.34-45.78c-1.956-8.672,3.584-17.336,12.352-19.32l45.256-10.22c-0.008-0.096-0.004-0.196-0.012-0.296l1.156,7.568
			l-0.124,1.38l-38.984,8.804c-6.928,1.564-11.296,8.48-9.736,15.412l7.944,35.184c1.352,5.98,6.684,10.052,12.576,10.052
			c0.936,0,1.892-0.1,2.84-0.316l79.104-17.864c3.348-0.756,6.204-2.78,8.048-5.696c1.844-2.92,2.44-6.368,1.688-9.716l-7.944-35.18
			c-0.752-3.344-2.776-6.204-5.696-8.048c-2.92-1.84-6.364-2.444-9.716-1.688l-4.248,0.96l9.056-10.808
			c0.86-0.136,1.72-0.288,2.58-0.288c3.036,0,6.016,0.848,8.656,2.496c3.68,2.3,6.228,5.868,7.168,10.044l2.324,10.292l2-1.152
			c1.444-0.832,2.72-1.352,4.02-1.648c7.776-1.752,15.544,3.076,17.28,10.78c1.744,7.704-3.184,15.404-10.972,17.164
			c-1.28,0.288-2.704,0.368-4.332,0.236l-2.304-0.184L185.44,154.84z M110.796,167.504l-6.076,10.304l-9.236,2.084l5.292-8.976
			l-1.952-1.152l-6.376,10.812l-6.672,1.508c-1.196,0.272-2.384,0.28-3.532,0.128l6.66-11.296l-1.952-1.152l-7,11.872l0.068,0.04
			c-3.052-1.156-5.496-3.768-6.268-7.184l-7.944-35.184c-1.22-5.408,2.188-10.8,7.592-12.02l79.108-17.864
			c0.736-0.168,1.472-0.248,2.212-0.248c1.88,0,3.728,0.532,5.364,1.568c2.28,1.44,3.86,3.668,4.444,6.276l7.944,35.18
			c0.588,2.608,0.12,5.3-1.316,7.58c-1.44,2.28-3.668,3.856-6.276,4.444l-57.124,12.9l4.992-8.468L110.796,167.504z M166.24,23.272
			c1.148,0.808,2.136,1.888,2.844,3.228c1.416,2.68,1.54,5.896,0.328,8.6l-2.024,4.528l-29.224-16.544L166.24,23.272z M101.9,22.828
			c-0.068-0.448-0.044-0.892-0.052-1.336l11.664,1.58l0.304-2.248l-11.752-1.592c0.376-1.732,1.164-3.328,2.412-4.544
			c1.484-1.444,3.384-2.22,5.368-2.22c0.452,0,0.908,0.04,1.364,0.124l43.316,7.768l-22.868-0.152
			c-2.236-0.404-4.496-0.156-6.536,0.916c-3.24,1.7-5.388,5.084-5.74,9.052l-6.02,67.58L101.9,22.828z M231.824,185.272
			c-1.228,0.284-3-0.916-4.656-3.116c-1.432-1.904-2.692-4.476-3.664-7.324l-1.008-4.464c-0.072,0.024-0.144,0.048-0.212,0.072
			c-1.228,0.424-2.496,0.76-3.676,1.296c-0.032,0.012-0.06,0.012-0.088,0.024l0.06,0.268c0.308,1.372,0.696,2.696,1.128,3.98
			l0.68,3.016c1.048,4.636-1.876,9.256-6.512,10.304L59.344,224.216c-4.648,1.048-9.252-1.872-10.304-6.508l-1.584-7.012
			c-0.192,0.076-0.396,0.096-0.588,0.164c-1.064,0.38-2.136,0.72-3.252,0.904c1.908,8.744-0.088,16.024-3.192,16.724l-7.764,1.752
			l-3.896-17.256l7.28-1.644l-0.624-2.764l-7.28,1.644l-2.624-11.624l7.28-1.644l-0.624-2.764l-7.28,1.644l-2.624-11.624l7.28-1.644
			l-0.624-2.764l-7.28,1.644l-2.628-11.628l7.28-1.644l-0.624-2.764l-7.28,1.644l-2.624-11.624l7.28-1.644l-0.628-2.768l-7.28,1.644
			l-2.624-11.624l7.28-1.644l-0.624-2.764l-7.28,1.644l-2.624-11.624l7.284-1.644l-0.624-2.764l-7.284,1.644l-3.896-17.256
			l7.772-1.752c3.14-0.748,8.128,5.116,10.128,13.952l0.06,0.268c0.044-0.02,0.088-0.032,0.132-0.056
			c1.168-0.564,2.36-1.06,3.588-1.488l-1.5-6.644c-0.504-2.236-0.1-4.54,1.132-6.492s3.144-3.308,5.38-3.812l75.728-17.1
			l3.088,20.192l-45.524,10.28c-10.592,2.392-17.288,12.884-14.92,23.384l10.34,45.78c2.048,9.048,10.156,15.196,19.14,15.192
			c1.444,0,2.912-0.16,4.38-0.492l90.172-20.36c5.112-1.156,9.484-4.228,12.308-8.652c2.832-4.428,3.756-9.664,2.612-14.736
			l-1.336-5.908c1.084-0.028,2.104-0.156,3.08-0.372c9.62-2.172,15.696-11.696,13.544-21.232
			c-2.152-9.536-11.736-15.512-21.352-13.348c-0.972,0.22-1.944,0.544-2.94,0.984l-1.332-5.908
			c-1.144-5.072-4.232-9.396-8.688-12.18c-3.068-1.916-6.524-2.836-10.04-2.9l22.312-26.632l3.956-0.892
			c0.628-0.144,1.264-0.212,1.896-0.212c1.608,0,3.196,0.456,4.596,1.344c1.956,1.236,3.308,3.144,3.816,5.38l0.764,3.376
			c0.136,1.016,0.276,2.036,0.5,3.092c1.028-0.368,2.072-0.668,3.156-0.832c0.228-0.076,0.452-0.144,0.68-0.216
			c0.06-0.02,0.116-0.036,0.176-0.056l-0.608-2.696c-0.936-7.532,0.892-12.76,2.976-13.228l6.916-1.564l3.896,17.252l-6.472,1.46
			l0.624,2.764l6.472-1.46l2.624,11.624l-6.472,1.46l0.624,2.764l6.472-1.46l2.624,11.624l-6.472,1.464l0.624,2.764l6.472-1.464
			l2.624,11.628l-6.472,1.46l0.624,2.764l6.472-1.46l2.624,11.624l-6.472,1.46l0.624,2.764l6.472-1.46l2.624,11.624l-6.472,1.46
			l0.624,2.764l6.472-1.46l2.624,11.624l-6.476,1.464l0.624,2.764l6.476-1.464l3.896,17.256L231.824,185.272z"/>
	</g>
</g>
</svg>